<?xml version="1.0" encoding="utf-8"?>
<!-- Generator: Adobe Illustrator 23.0.3, SVG Export Plug-In . SVG Version: 6.00 Build 0)  -->
<svg version="1.1" id="Layer_1" xmlns="http://www.w3.org/2000/svg" xmlns:xlink="http://www.w3.org/1999/xlink" x="0px" y="0px"
	 viewBox="0 0 20 20" style="enable-background:new 0 0 20 20;" xml:space="preserve">
<style type="text/css">
	.st0{fill:#3399CC;}
	.st1{fill:#FFFFFF;}
</style>
<circle class="st0" cx="10" cy="10" r="10"/>
<g>
	<path class="st1" d="M15.5,10.5h-11C4.2,10.5,4,10.3,4,10s0.2-0.5,0.5-0.5h11c0.3,0,0.5,0.2,0.5,0.5S15.8,10.5,15.5,10.5z"/>
	<path class="st1" d="M15.5,10.5c-0.1,0-0.3,0-0.4-0.1L8.8,4c-0.2-0.2-0.2-0.5,0-0.7s0.5-0.2,0.7,0l6.4,6.4c0.2,0.2,0.2,0.5,0,0.7
		C15.8,10.5,15.6,10.5,15.5,10.5z"/>
	<path class="st1" d="M9.1,16.9c-0.1,0-0.3,0-0.4-0.1c-0.2-0.2-0.2-0.5,0-0.7l6.4-6.4c0.2-0.2,0.5-0.2,0.7,0s0.2,0.5,0,0.7l-6.4,6.4
		C9.4,16.8,9.3,16.9,9.1,16.9z"/>
</g>
</svg>
