<svg version="1.1" id="Layer_1" xmlns="http://www.w3.org/2000/svg" x="0" y="0" viewBox="0 0 20 20" xml:space="preserve"><style>.st0{fill:#39c}.st1{fill:#fff}</style><circle class="st0" cx="10" cy="10" r="10"/><path class="st1" d="M4.5 9.5h11c.3 0 .5.2.5.5s-.2.5-.5.5h-11c-.3 0-.5-.2-.5-.5s.2-.5.5-.5z"/><path class="st1" d="M4.5 9.5c.1 0 .3 0 .4.1l6.4 6.4c.2.2.2.5 0 .7s-.5.2-.7 0l-6.4-6.4c-.2-.1-.2-.5-.1-.7.1-.1.3-.1.4-.1z"/><path class="st1" d="M10.9 3.1c.1 0 .3 0 .4.1.2.2.2.5 0 .7l-6.4 6.4c-.2.2-.5.2-.7 0s-.2-.5-.1-.7l6.4-6.4c.1 0 .2-.1.4-.1z"/></svg>