<svg version="1.1" id="Layer_1" xmlns="http://www.w3.org/2000/svg" x="0" y="0" viewBox="0 0 20 20" xml:space="preserve"><style>.st0{fill:#39c}.st1{fill:#fff}</style><circle class="st0" cx="10" cy="10" r="10"/><path class="st1" d="M15.5 10.5h-11c-.3 0-.5-.2-.5-.5s.2-.5.5-.5h11c.3 0 .5.2.5.5s-.2.5-.5.5z"/><path class="st1" d="M15.5 10.5c-.1 0-.3 0-.4-.1L8.8 4c-.2-.2-.2-.5 0-.7s.5-.2.7 0l6.4 6.4c.2.2.2.5 0 .7-.1.1-.3.1-.4.1z"/><path class="st1" d="M9.1 16.9c-.1 0-.3 0-.4-.1-.2-.2-.2-.5 0-.7l6.4-6.4c.2-.2.5-.2.7 0s.2.5 0 .7l-6.4 6.4s-.1.1-.3.1z"/></svg>