<?xml version="1.0" encoding="utf-8"?>
<!-- Generator: Adobe Illustrator 23.0.3, SVG Export Plug-In . SVG Version: 6.00 Build 0)  -->
<svg version="1.1" id="Layer_1" xmlns="http://www.w3.org/2000/svg" xmlns:xlink="http://www.w3.org/1999/xlink" x="0px" y="0px"
	 viewBox="0 0 20 20" style="enable-background:new 0 0 20 20;" xml:space="preserve">
<style type="text/css">
	.st0{fill:#3399CC;}
	.st1{fill:#FFFFFF;}
</style>
<circle class="st0" cx="10" cy="10" r="10"/>
<g>
	<path class="st1" d="M4.5,9.5h11c0.3,0,0.5,0.2,0.5,0.5s-0.2,0.5-0.5,0.5h-11C4.2,10.5,4,10.3,4,10S4.2,9.5,4.5,9.5z"/>
	<path class="st1" d="M4.5,9.5c0.1,0,0.3,0,0.4,0.1l6.4,6.4c0.2,0.2,0.2,0.5,0,0.7s-0.5,0.2-0.7,0l-6.4-6.4C4,10.2,4,9.8,4.1,9.6
		C4.2,9.5,4.4,9.5,4.5,9.5z"/>
	<path class="st1" d="M10.9,3.1c0.1,0,0.3,0,0.4,0.1c0.2,0.2,0.2,0.5,0,0.7l-6.4,6.4c-0.2,0.2-0.5,0.2-0.7,0S4,9.8,4.1,9.6l6.4-6.4
		C10.6,3.2,10.7,3.1,10.9,3.1z"/>
</g>
</svg>
