<svg xmlns="http://www.w3.org/2000/svg" viewBox="0 0 926.46 264"><path d="M222.35 134.75c-1.31 7.8-8.08 13.75-16.25 13.75-9.11 0-16.5-7.39-16.5-16.5s7.39-16.5 16.5-16.5c8.17 0 14.94 5.95 16.25 13.75h41.58C262.46 57.62 203.98 0 132 0 59.1 0 0 59.1 0 132s59.1 132 132 132c71.98 0 130.46-57.62 131.93-129.25h-41.58zM132 231c-54.68 0-99-44.32-99-99s44.32-99 99-99c31.54 0 59.62 14.77 77.75 37.75l-35.48 35.48C165.57 92 149.9 82.5 132 82.5c-27.34 0-49.5 22.16-49.5 49.5s22.16 49.5 49.5 49.5c17.9 0 33.57-9.5 42.27-23.73l35.48 35.48C191.62 216.23 163.54 231 132 231z" fill="#00598e"/><g fill="#2da4d5"><path d="M324.07 164.25h11.14l12.34 19.86 12.34-19.86h11.14v46.96h-10.26v-30.66l-13.22 20.06h-.26l-13.09-19.86v30.46h-10.13v-46.96zM476.17 164.25h35.43v9.19h-25.15v9.53h22.14v9.19h-22.14v9.86h25.49v9.19h-35.76v-46.96zM615 164.25h18.31c14.75 0 24.96 10.13 24.96 23.35v.13c0 13.22-10.21 23.48-24.96 23.48H615v-46.96zm10.34 9.32v28.31h7.98c8.46 0 14.16-5.7 14.16-14.02v-.14c0-8.32-5.7-14.15-14.16-14.15h-7.98zM761.8 164.25h10.34v46.96H761.8v-46.96zM893.85 163.91h9.53l20.13 47.3h-10.8l-4.3-10.53h-19.86l-4.29 10.53h-10.53l20.12-47.3zm10.88 27.64l-6.24-15.23-6.24 15.23h12.48z"/></g><linearGradient id="a" gradientUnits="userSpaceOnUse" x1="310.444" y1="96.361" x2="392.07" y2="96.361"><stop offset="0" stop-color="#221f1f"/><stop offset=".09" stop-color="#221f1f"/><stop offset="1" stop-color="#221f1f"/></linearGradient><path d="M310.44 96.6v-.24c0-24.85 19-44.35 44.84-44.35 17.42 0 28.63 7.31 36.18 17.66l-17.79 13.77c-4.87-5.97-10.48-9.99-18.64-9.99-11.94 0-20.35 10.23-20.35 22.66v.24c0 12.79 8.41 22.78 20.35 22.78 8.89 0 14.13-4.14 19.25-10.36l17.79 12.67c-8.04 11.09-18.88 19.25-37.65 19.25-24.36.02-43.98-18.62-43.98-44.09z" fill="url(#a)"/><linearGradient id="b" gradientUnits="userSpaceOnUse" x1="401.364" y1="97.151" x2="480.678" y2="97.151"><stop offset="0" stop-color="#221f1f"/><stop offset=".09" stop-color="#221f1f"/><stop offset="1" stop-color="#221f1f"/></linearGradient><path d="M401.36 101.6V53.72h23.88v47.4c0 12.3 6.22 18.15 15.72 18.15 9.62 0 15.84-5.61 15.84-17.54V53.72h23.88v47.27c0 27.41-15.72 39.6-39.96 39.6-24.13 0-39.36-12.31-39.36-38.99z" fill="url(#b)"/><linearGradient id="c" gradientUnits="userSpaceOnUse" x1="494.719" y1="96.359" x2="585.367" y2="96.359"><stop offset="0" stop-color="#221f1f"/><stop offset=".09" stop-color="#221f1f"/><stop offset="1" stop-color="#221f1f"/></linearGradient><path d="M494.72 53.72h24.98l20.35 33.02 20.34-33.02h24.98V139h-23.52V90.03l-21.81 33.38h-.49l-21.68-33.26V139h-23.15V53.72z" fill="url(#c)"/><linearGradient id="d" gradientUnits="userSpaceOnUse" x1="599.543" y1="97.151" x2="678.858" y2="97.151"><stop offset="0" stop-color="#221f1f"/><stop offset=".09" stop-color="#221f1f"/><stop offset="1" stop-color="#221f1f"/></linearGradient><path d="M599.54 101.6V53.72h23.88v47.4c0 12.3 6.22 18.15 15.72 18.15 9.62 0 15.84-5.61 15.84-17.54V53.72h23.88v47.27c0 27.41-15.72 39.6-39.96 39.6-24.13 0-39.36-12.31-39.36-38.99z" fill="url(#d)"/><linearGradient id="e" gradientUnits="userSpaceOnUse" x1="692.899" y1="96.359" x2="757.836" y2="96.359"><stop offset="0" stop-color="#221f1f"/><stop offset=".09" stop-color="#221f1f"/><stop offset="1" stop-color="#221f1f"/></linearGradient><path d="M692.9 53.72h23.64v64.57h41.3V139H692.9V53.72z" fill="url(#e)"/><linearGradient id="f" gradientUnits="userSpaceOnUse" x1="764.688" y1="97.151" x2="844.002" y2="97.151"><stop offset="0" stop-color="#221f1f"/><stop offset=".09" stop-color="#221f1f"/><stop offset="1" stop-color="#221f1f"/></linearGradient><path d="M764.69 101.6V53.72h23.88v47.4c0 12.3 6.22 18.15 15.72 18.15 9.62 0 15.84-5.61 15.84-17.54V53.72H844v47.27c0 27.41-15.72 39.6-39.96 39.6-24.13 0-39.35-12.31-39.35-38.99z" fill="url(#f)"/><linearGradient id="g" gradientUnits="userSpaceOnUse" x1="851.593" y1="96.361" x2="926.037" y2="96.361"><stop offset="0" stop-color="#221f1f"/><stop offset=".09" stop-color="#221f1f"/><stop offset="1" stop-color="#221f1f"/></linearGradient><path d="M851.59 126.33l13.16-15.72c8.53 6.7 17.79 10.24 27.65 10.24 6.46 0 9.87-2.19 9.87-5.85v-.24c0-3.66-2.8-5.48-14.49-8.29-18.15-4.14-32.17-9.26-32.17-26.68v-.24c0-15.84 12.55-27.29 33.02-27.29 14.5 0 25.83 3.9 35.09 11.33L911.9 80.28c-7.8-5.61-16.32-8.41-23.88-8.41-5.72 0-8.53 2.32-8.53 5.48v.24c0 3.9 2.93 5.61 14.87 8.29 19.49 4.26 31.68 10.6 31.68 26.56v.24c0 17.42-13.77 27.78-34.48 27.78-15.11.01-29.37-4.75-39.97-14.13z" fill="url(#g)"/><g fill="#2da4d5"><path d="M918.74 162.38v.85h-2.4v6.29h-.98v-6.29h-2.4v-.85h5.78zM919.61 162.38H921l2.05 6.03 2.04-6.03h1.38v7.14h-.92v-4.21c0-.15 0-.39.01-.72.01-.34.01-.7.01-1.08l-2.04 6.02h-.96l-2.06-6.02v.22c0 .17 0 .44.01.8.01.36.01.62.01.79v4.21h-.92v-7.15z"/></g></svg>