<svg viewBox="0 0 265.9 266" preserveAspectRatio="xMinYMid" xmlns="http://www.w3.org/2000/svg"><path d="M223.3 135.7c-1.3 7.8-8.1 13.8-16.2 13.8-9.1 0-16.5-7.4-16.5-16.5s7.4-16.5 16.5-16.5c8.2 0 14.9 5.9 16.2 13.8h41.6C263.5 58.6 205 1 133 1 60.1 1 1 60.1 1 133s59.1 132 132 132c72 0 130.5-57.6 131.9-129.2h-41.6zM133 232c-54.7 0-99-44.3-99-99s44.3-99 99-99c31.5 0 59.6 14.8 77.8 37.8l-35.5 35.5C166.6 93 150.9 83.5 133 83.5c-27.3 0-49.5 22.2-49.5 49.5s22.2 49.5 49.5 49.5c17.9 0 33.6-9.5 42.3-23.7l35.5 35.5C192.6 217.2 164.5 232 133 232z" fill="#00598e"/></svg>