<svg viewBox="0 0 931.5 269" preserveAspectRatio="xMinYMid" xmlns="http://www.w3.org/2000/svg"><g opacity=".3"><path d="M227.4 139.8c-1.3 7.8-8.1 13.8-16.2 13.8-9.1 0-16.5-7.4-16.5-16.5s7.4-16.5 16.5-16.5c8.2 0 14.9 5.9 16.2 13.8H269C267.5 62.6 209 5 137 5 64.1 5 5 64.1 5 137s59.1 132 132 132c72 0 130.5-57.6 131.9-129.2zM137 236c-54.7 0-99-44.3-99-99s44.3-99 99-99c31.5 0 59.6 14.8 77.8 37.8l-35.5 35.5C170.6 97 154.9 87.5 137 87.5c-27.3 0-49.5 22.2-49.5 49.5s22.2 49.5 49.5 49.5c17.9 0 33.6-9.5 42.3-23.7l35.5 35.5C196.6 221.2 168.5 236 137 236zM329.1 169.3h11.1l12.3 19.9 12.3-19.9H376v47h-10.3v-30.7l-13.2 20.1h-.3l-13.1-19.9v30.5H329v-47zM481.2 169.3h35.4v9.2h-25.1v9.5h22.1v9.2h-22.1v9.9H517v9.2h-35.8zM620 169.3h18.3c14.8 0 25 10.1 25 23.4v.1c0 13.2-10.2 23.5-25 23.5H620zm10.3 9.3v28.3h8c8.5 0 14.2-5.7 14.2-14v-.1c0-8.3-5.7-14.1-14.2-14.1h-8zM766.8 169.3h10.3v47h-10.3zM898.9 168.9h9.5l20.1 47.3h-10.8l-4.3-10.5h-19.9l-4.3 10.5h-10.5zm10.8 27.7l-6.2-15.2-6.2 15.2zM315.4 101.6v-.2c0-24.8 19-44.3 44.8-44.3 17.4 0 28.6 7.3 36.2 17.7l-17.8 13.8c-4.9-6-10.5-10-18.6-10-11.9 0-20.4 10.2-20.4 22.7v.2c0 12.8 8.4 22.8 20.4 22.8 8.9 0 14.1-4.1 19.2-10.4l17.8 12.7c-8 11.1-18.9 19.3-37.6 19.3-24.3-.2-44-18.8-44-44.3zM406.4 106.6V58.7h23.9v47.4c0 12.3 6.2 18.2 15.7 18.2 9.6 0 15.8-5.6 15.8-17.5v-48h23.9V106c0 27.4-15.7 39.6-40 39.6-24.1 0-39.3-12.3-39.3-39zM499.7 58.7h25l20.3 33 20.3-33h25V144h-23.5V95L545 128.4h-.5l-21.7-33.3V144h-23.2V58.7zM604.5 106.6V58.7h23.9v47.4c0 12.3 6.2 18.2 15.7 18.2 9.6 0 15.8-5.6 15.8-17.5v-48h23.9V106c0 27.4-15.7 39.6-40 39.6-24 0-39.3-12.3-39.3-39zM697.9 58.7h23.6v64.6h41.3V144h-64.9zM769.7 106.6V58.7h23.9v47.4c0 12.3 6.2 18.2 15.7 18.2 9.6 0 15.8-5.6 15.8-17.5v-48H849V106c0 27.4-15.7 39.6-40 39.6-24.1 0-39.3-12.3-39.3-39zM856.6 131.3l13.2-15.7c8.5 6.7 17.8 10.2 27.7 10.2 6.5 0 9.9-2.2 9.9-5.8v-.2c0-3.7-2.8-5.5-14.5-8.3-18.2-4.1-32.2-9.3-32.2-26.7v-.2c0-15.8 12.5-27.3 33-27.3 14.5 0 25.8 3.9 35.1 11.3L917 85.3c-7.8-5.6-16.3-8.4-23.9-8.4-5.7 0-8.5 2.3-8.5 5.5v.2c0 3.9 2.9 5.6 14.9 8.3 19.5 4.3 31.7 10.6 31.7 26.6v.2c0 17.4-13.8 27.8-34.5 27.8-15.2 0-29.5-4.8-40.1-14.2zM923.7 167.4v.9h-2.4v6.3h-1v-6.3H918v-.9zM924.6 167.4h1.4l2 6 2-6h1.4v7.1h-.9v-4.2-.7-1.1l-2 6h-1l-2.1-6v6h-.9z"/></g><g fill="#fff"><path d="M222.4 134.8c-1.3 7.8-8.1 13.8-16.2 13.8-9.1 0-16.5-7.4-16.5-16.5s7.4-16.5 16.5-16.5c8.2 0 14.9 5.9 16.2 13.8H264C262.5 57.6 204 0 132 0 59.1 0 0 59.1 0 132s59.1 132 132 132c72 0 130.5-57.6 131.9-129.2zM132 231c-54.7 0-99-44.3-99-99s44.3-99 99-99c31.5 0 59.6 14.8 77.8 37.8l-35.5 35.5C165.6 92 149.9 82.5 132 82.5c-27.3 0-49.5 22.2-49.5 49.5s22.2 49.5 49.5 49.5c17.9 0 33.6-9.5 42.3-23.7l35.5 35.5C191.6 216.2 163.5 231 132 231zM324.1 164.2h11.1l12.3 19.9 12.3-19.9H371v47h-10.3v-30.7l-13.2 20.1h-.3l-13.1-19.9v30.5H324v-47zM476.2 164.2h35.4v9.2h-25.1v9.5h22.1v9.2h-22.1v9.9H512v9.2h-35.8zM615 164.2h18.3c14.8 0 25 10.1 25 23.4v.1c0 13.2-10.2 23.5-25 23.5H615zm10.3 9.4v28.3h8c8.5 0 14.2-5.7 14.2-14v-.1c0-8.3-5.7-14.1-14.2-14.1h-8zM761.8 164.2h10.3v47h-10.3zM893.8 163.9h9.5l20.1 47.3h-10.8l-4.3-10.5h-19.9l-4.3 10.5h-10.5zm10.9 27.7l-6.2-15.2-6.2 15.2zM310.4 96.6v-.2c0-24.8 19-44.3 44.8-44.3 17.4 0 28.6 7.3 36.2 17.7l-17.8 13.8c-4.9-6-10.5-10-18.6-10-11.9 0-20.4 10.2-20.4 22.7v.2c0 12.8 8.4 22.8 20.4 22.8 8.9 0 14.1-4.1 19.2-10.4l17.8 12.7c-8 11.1-18.9 19.3-37.6 19.3-24.3-.2-44-18.8-44-44.3zM401.4 101.6V53.7h23.9v47.4c0 12.3 6.2 18.2 15.7 18.2 9.6 0 15.8-5.6 15.8-17.5v-48h23.9V101c0 27.4-15.7 39.6-40 39.6-24.1 0-39.3-12.3-39.3-39zM494.7 53.7h25l20.3 33 20.3-33h25V139h-23.5V90L540 123.4h-.5l-21.7-33.3V139h-23.1zM599.5 101.6V53.7h23.9v47.4c0 12.3 6.2 18.2 15.7 18.2 9.6 0 15.8-5.6 15.8-17.5v-48h23.9V101c0 27.4-15.7 39.6-40 39.6-24 0-39.3-12.3-39.3-39zM692.9 53.7h23.6v64.6h41.3V139h-64.9zM764.7 101.6V53.7h23.9v47.4c0 12.3 6.2 18.2 15.7 18.2 9.6 0 15.8-5.6 15.8-17.5v-48H844V101c0 27.4-15.7 39.6-40 39.6-24.1 0-39.3-12.3-39.3-39zM851.6 126.3l13.2-15.7c8.5 6.7 17.8 10.2 27.7 10.2 6.5 0 9.9-2.2 9.9-5.8v-.2c0-3.7-2.8-5.5-14.5-8.3-18.2-4.1-32.2-9.3-32.2-26.7v-.2c0-15.8 12.5-27.3 33-27.3 14.5 0 25.8 3.9 35.1 11.3L912 80.3c-7.8-5.6-16.3-8.4-23.9-8.4-5.7 0-8.5 2.3-8.5 5.5v.2c0 3.9 2.9 5.6 14.9 8.3 19.5 4.3 31.7 10.6 31.7 26.6v.2c0 17.4-13.8 27.8-34.5 27.8-15.2 0-29.5-4.8-40.1-14.2zM918.7 162.4v.9h-2.4v6.3h-1v-6.3H913v-.9zM919.6 162.4h1.4l2 6 2-6h1.4v7.1h-.9v-4.2-.7-1.1l-2 6h-1l-2.1-6v6h-.9z"/></g></svg>