<svg xmlns="http://www.w3.org/2000/svg" viewBox="0 0 645.28 645.45"><path d="M543.62 329.45c-3.21 19.07-19.75 33.62-39.74 33.62-22.28 0-40.34-18.06-40.34-40.34 0-22.28 18.06-40.34 40.34-40.34 19.98 0 36.53 14.54 39.74 33.62h101.66C641.69 140.88 498.71 0 322.72 0 144.49 0 0 144.49 0 322.72c0 178.24 144.49 322.72 322.72 322.72 175.98 0 318.96-140.88 322.55-316H543.62zm-220.9 235.32c-133.68 0-242.04-108.37-242.04-242.04S189.05 80.68 322.72 80.68c77.12 0 145.76 36.11 190.09 92.3l-86.74 86.74c-21.26-34.79-59.58-58.02-103.34-58.02-66.84 0-121.02 54.18-121.02 121.02s54.18 121.02 121.02 121.02c43.76 0 82.09-23.23 103.34-58.02l86.74 86.74c-44.32 56.2-112.97 92.31-190.09 92.31z" fill="#fff"/></svg>