<svg xmlns="http://www.w3.org/2000/svg" viewBox="0 0 263.93 264"><path d="M222.35 134.75c-1.31 7.8-8.08 13.75-16.25 13.75-9.11 0-16.5-7.39-16.5-16.5s7.39-16.5 16.5-16.5c8.17 0 14.94 5.95 16.25 13.75h41.58C262.46 57.62 203.98 0 132 0 59.1 0 0 59.1 0 132s59.1 132 132 132c71.98 0 130.46-57.62 131.93-129.25h-41.58zM132 231c-54.68 0-99-44.32-99-99s44.32-99 99-99c31.54 0 59.62 14.77 77.75 37.75l-35.48 35.48C165.57 92 149.9 82.5 132 82.5c-27.34 0-49.5 22.16-49.5 49.5s22.16 49.5 49.5 49.5c17.9 0 33.57-9.5 42.27-23.73l35.48 35.48C191.62 216.23 163.54 231 132 231z" fill="#00598e"/></svg>