<svg version="1" xmlns="http://www.w3.org/2000/svg" width="933.333" height="933.333" viewBox="0 0 700.000000 700.000000"><path d="M327.8.5c-.1.1-4.2.5-8.9.9s-9.5.8-10.5 1c-1 .2-4.8.7-8.4 1.2-3.6.4-6.7.8-7 .9-.3.1-2.5.5-5 .9s-10.1 2.1-17 3.8c-6.9 1.6-13.5 3.1-14.7 3.4-1.2.2-7.1 2-13 4-68.6 22.6-125.9 62.7-169.7 118.8-15.8 20.1-32.8 48.3-42.1 69.6-2.5 5.8-5 11.4-5.5 12.5-4.5 9.3-15 42.7-17.6 56-.2 1.1-1 5.4-1.9 9.5-2.9 14.7-3.6 20-5.2 37-1.5 16.4-.8 59.2 1.2 71.1.2 1.3.6 4.6.9 7.4 2.1 18.2 10.9 54.7 16.5 68 .5 1.1 2.5 6.5 4.6 12 5 13.2 18.1 39.8 25 50.8 3 4.9 5.5 9 5.5 9.3 0 .3.4 1 1 1.7.5.7 4.6 6.4 9.1 12.6 40.1 56.9 98.1 101.2 163.9 125.5 24.2 8.9 55.2 16.4 78 19 27.7 3.2 69.7 2.8 91.7-.8 2.1-.4 5.4-.9 7.3-1.1 1.9-.3 4.6-.7 6-1 1.4-.3 4.1-.8 6-1.1 6.2-1.1 26.3-6.2 36-9.2 72.4-22.5 134.8-67.4 179.9-129.7 9.7-13.4 10.2-14.2 20-31.1 16.2-28.1 27.7-56.6 35.7-88.7 2-7.8 3.7-15.1 3.8-16.2.2-1.1.6-3.6 1-5.5 1.1-6.4 1.6-9.5 2.2-13.5.3-2.2.7-5.1 1-6.5.7-4.3 1.7-20.1 1.8-28l.1-7.5H589.6l-.7 3c-2.8 13.1-14.9 26.3-28.4 31-5.8 2-15.7 2.6-22.3 1.3-12.4-2.3-25-11.9-30.6-23.3-3.4-6.9-3.7-8.2-4.3-16.6-2.7-35.6 36.8-58.7 67.3-39.4 2.7 1.8 6.7 5.2 8.8 7.6 4.1 4.9 9.6 15.5 9.6 18.8 0 1.2.6 2.2 1.3 2.3.6 0 25.6.2 55.5.3l54.4.1-.7-11.5c-.3-6.4-.8-12.7-1-14.1-.2-1.4-.7-5-1-8-2.4-22.8-7.6-46.1-15.7-70.5-2.8-8.3-5.4-15.5-5.8-16-.4-.6-1.1-2.1-1.5-3.5-2.5-8.9-17.8-38.8-28-54.9-30.4-48-68.6-85.3-118-115.3-9-5.5-41.3-21.8-43.2-21.8-.5 0-2.7-.8-4.9-1.9-2.1-1-9.3-3.7-15.9-5.9-16.9-5.8-30.5-9.4-52-13.8-1.1-.2-3.8-.6-6-.9-2.2-.3-5.1-.7-6.5-1-1.3-.2-5.4-.7-9-1.1-3.6-.3-7.8-.8-9.5-1.1-3.3-.5-53.1-1.3-53.7-.8zm43.7 87.9c7.8.8 20.9 2.4 24.6 3.1 14.8 2.8 23.8 5.1 36.9 9.5 13.7 4.5 34 13.2 42 18 .8.5 4.7 2.8 8.5 5.1 25.6 15.3 49.9 35.7 67.3 56.8 5.2 6.2 5.3 6.4 3.5 8.3-4.6 5.2-91.6 91.8-92.2 91.8-.3 0-2.4-2.8-4.6-6.3-2.1-3.4-8.7-11-14.5-16.8-17.8-17.8-36-28.4-60-34.8-11.5-3.1-16.2-3.6-33.5-3.6-21.5.1-30.2 1.7-48.5 9-30.4 12.2-54.2 34.4-68.9 64.3-2.3 4.5-4.1 8.8-4.1 9.5 0 .7-.4 1.7-.8 2.3-1 1-4.8 14-5.7 18.9-.2 1.6-.8 4.1-1.1 5.5-.3 1.4-.8 9.7-.9 18.5-.5 24.4 2.9 39.8 13.6 61.7 17.9 36.6 56.5 64.8 96.2 70.3 2.7.3 5.9.8 7 1.1 2.9.6 23.3.5 27.5-.1 1.8-.2 5.2-.7 7.5-1 6-.8 23-5.5 24.1-6.6.6-.5 1.7-.9 2.4-.9 3.6 0 25.1-12.2 34.1-19.3 6.3-5.1 22-21.8 25.6-27.5 2.2-3.4 4.3-6.2 4.7-6.2.6 0 93.8 92.9 93.8 93.5 0 .8-10.1 12.4-17.1 19.6-12.9 13.3-30.6 28.1-44.4 37-2.2 1.4-6.2 4.1-9 5.8-7.6 5-31.7 16.5-43.8 21.1-13.7 5.1-29.1 9.3-45.5 12.5-22.4 4.2-52.7 5-79.2 1.9-4.8-.5-4.9-.6-15-2.4-13.7-2.4-36.3-8.8-44.5-12.4-1.6-.8-4.1-1.7-5.5-2.1-1.4-.4-8.8-3.8-16.5-7.5-56.2-27.1-101.2-74-126.4-131.8-8.5-19.4-15.9-45.4-18.6-65.2-.3-2.5-.8-5.2-1-6-.8-3.1-1.8-20.9-1.8-32.5-.1-18.1 1.8-37.7 4.8-51.1 1.5-6.4 2.1-9.3 3-14.2 1.1-5.5 6.9-23 11-33.2 9.9-24.6 23.4-47.3 41.4-69.4 5.2-6.5 24.7-26.6 30.2-31.1 6.4-5.3 8.7-7.2 11.3-9 1.6-1.1 3.3-2.5 4-3 5.9-5.2 22.9-15.8 39.6-24.6 15.7-8.3 48.7-19.5 66-22.4 1.9-.3 4.2-.8 5-1 .8-.2 3.9-.7 6.9-1 3-.4 6.3-.9 7.5-1.1 1.2-.2 6.2-.7 11.1-1 5-.3 9.1-.7 9.2-.8.5-.5 26.2.2 32.8.8z"/></svg>