<?xml version="1.0" encoding="utf-8"?>
<!-- Generator: Adobe Illustrator 23.0.3, SVG Export Plug-In . SVG Version: 6.00 Build 0)  -->
<svg version="1.1" id="Layer_1" xmlns="http://www.w3.org/2000/svg" xmlns:xlink="http://www.w3.org/1999/xlink" x="0px" y="0px"
	 viewBox="0 0 931.5 269" style="enable-background:new 0 0 931.5 269;" xml:space="preserve">
<style type="text/css">
	.st0{opacity:0.3;}
	.st1{fill:#FFFFFF;}
</style>
<g class="st0">
	<g>
		<g>
			<path d="M227.4,139.8c-1.3,7.8-8.1,13.8-16.2,13.8c-9.1,0-16.5-7.4-16.5-16.5s7.4-16.5,16.5-16.5c8.2,0,14.9,5.9,16.2,13.8h41.6
				C267.5,62.6,209,5,137,5C64.1,5,5,64.1,5,137s59.1,132,132,132c72,0,130.5-57.6,131.9-129.2H227.4z M137,236
				c-54.7,0-99-44.3-99-99s44.3-99,99-99c31.5,0,59.6,14.8,77.8,37.8l-35.5,35.5C170.6,97,154.9,87.5,137,87.5
				c-27.3,0-49.5,22.2-49.5,49.5s22.2,49.5,49.5,49.5c17.9,0,33.6-9.5,42.3-23.7l35.5,35.5C196.6,221.2,168.5,236,137,236z"/>
		</g>
	</g>
	<g>
		<path d="M329.1,169.3h11.1l12.3,19.9l12.3-19.9H376v47h-10.3v-30.7l-13.2,20.1h-0.3l-13.1-19.9v30.5h-10.1V169.3z"/>
		<path d="M481.2,169.3h35.4v9.2h-25.1v9.5h22.1v9.2h-22.1v9.9h25.5v9.2h-35.8L481.2,169.3L481.2,169.3z"/>
		<path d="M620,169.3h18.3c14.8,0,25,10.1,25,23.4v0.1c0,13.2-10.2,23.5-25,23.5H620V169.3z M630.3,178.6v28.3h8
			c8.5,0,14.2-5.7,14.2-14v-0.1c0-8.3-5.7-14.1-14.2-14.1H630.3z"/>
		<path d="M766.8,169.3h10.3v47h-10.3V169.3z"/>
		<path d="M898.9,168.9h9.5l20.1,47.3h-10.8l-4.3-10.5h-19.9l-4.3,10.5h-10.5L898.9,168.9z M909.7,196.6l-6.2-15.2l-6.2,15.2H909.7z
			"/>
	</g>
	<g>
		<path d="M315.4,101.6v-0.2c0-24.8,19-44.3,44.8-44.3c17.4,0,28.6,7.3,36.2,17.7l-17.8,13.8c-4.9-6-10.5-10-18.6-10
			c-11.9,0-20.4,10.2-20.4,22.7v0.2c0,12.8,8.4,22.8,20.4,22.8c8.9,0,14.1-4.1,19.2-10.4l17.8,12.7c-8,11.1-18.9,19.3-37.6,19.3
			C335.1,145.7,315.4,127.1,315.4,101.6z"/>
		<path d="M406.4,106.6V58.7h23.9v47.4c0,12.3,6.2,18.2,15.7,18.2c9.6,0,15.8-5.6,15.8-17.5v-48h23.9V106c0,27.4-15.7,39.6-40,39.6
			C421.6,145.6,406.4,133.3,406.4,106.6z"/>
		<path d="M499.7,58.7h25l20.3,33l20.3-33h25V144h-23.5V95L545,128.4h-0.5l-21.7-33.3V144h-23.2V58.7z"/>
		<path d="M604.5,106.6V58.7h23.9v47.4c0,12.3,6.2,18.2,15.7,18.2c9.6,0,15.8-5.6,15.8-17.5v-48h23.9V106c0,27.4-15.7,39.6-40,39.6
			C619.8,145.6,604.5,133.3,604.5,106.6z"/>
		<path d="M697.9,58.7h23.6v64.6h41.3V144h-64.9V58.7z"/>
		<path d="M769.7,106.6V58.7h23.9v47.4c0,12.3,6.2,18.2,15.7,18.2c9.6,0,15.8-5.6,15.8-17.5v-48H849V106c0,27.4-15.7,39.6-40,39.6
			C784.9,145.6,769.7,133.3,769.7,106.6z"/>
		<path d="M856.6,131.3l13.2-15.7c8.5,6.7,17.8,10.2,27.7,10.2c6.5,0,9.9-2.2,9.9-5.8v-0.2c0-3.7-2.8-5.5-14.5-8.3
			c-18.2-4.1-32.2-9.3-32.2-26.7v-0.2c0-15.8,12.5-27.3,33-27.3c14.5,0,25.8,3.9,35.1,11.3l-11.8,16.7c-7.8-5.6-16.3-8.4-23.9-8.4
			c-5.7,0-8.5,2.3-8.5,5.5v0.2c0,3.9,2.9,5.6,14.9,8.3c19.5,4.3,31.7,10.6,31.7,26.6v0.2c0,17.4-13.8,27.8-34.5,27.8
			C881.5,145.5,867.2,140.7,856.6,131.3z"/>
	</g>
	<g>
		<path d="M923.7,167.4v0.9h-2.4v6.3h-1v-6.3H918v-0.9H923.7z"/>
		<path d="M924.6,167.4h1.4l2,6l2-6h1.4v7.1h-0.9v-4.2c0-0.1,0-0.4,0-0.7c0-0.3,0-0.7,0-1.1l-2,6h-1l-2.1-6v0.2c0,0.2,0,0.4,0,0.8
			s0,0.6,0,0.8v4.2h-0.9L924.6,167.4L924.6,167.4z"/>
	</g>
</g>
<g>
	<g>
		<g>
			<path class="st1" d="M222.4,134.8c-1.3,7.8-8.1,13.8-16.2,13.8c-9.1,0-16.5-7.4-16.5-16.5s7.4-16.5,16.5-16.5
				c8.2,0,14.9,5.9,16.2,13.8h41.6C262.5,57.6,204,0,132,0C59.1,0,0,59.1,0,132s59.1,132,132,132c72,0,130.5-57.6,131.9-129.2H222.4
				z M132,231c-54.7,0-99-44.3-99-99s44.3-99,99-99c31.5,0,59.6,14.8,77.8,37.8l-35.5,35.5C165.6,92,149.9,82.5,132,82.5
				c-27.3,0-49.5,22.2-49.5,49.5s22.2,49.5,49.5,49.5c17.9,0,33.6-9.5,42.3-23.7l35.5,35.5C191.6,216.2,163.5,231,132,231z"/>
		</g>
	</g>
	<g>
		<path class="st1" d="M324.1,164.2h11.1l12.3,19.9l12.3-19.9H371v47h-10.3v-30.7l-13.2,20.1h-0.3l-13.1-19.9v30.5h-10.1V164.2z"/>
		<path class="st1" d="M476.2,164.2h35.4v9.2h-25.1v9.5h22.1v9.2h-22.1v9.9h25.5v9.2h-35.8L476.2,164.2L476.2,164.2z"/>
		<path class="st1" d="M615,164.2h18.3c14.8,0,25,10.1,25,23.4v0.1c0,13.2-10.2,23.5-25,23.5H615V164.2z M625.3,173.6v28.3h8
			c8.5,0,14.2-5.7,14.2-14v-0.1c0-8.3-5.7-14.1-14.2-14.1H625.3z"/>
		<path class="st1" d="M761.8,164.2h10.3v47h-10.3V164.2z"/>
		<path class="st1" d="M893.8,163.9h9.5l20.1,47.3h-10.8l-4.3-10.5h-19.9l-4.3,10.5h-10.5L893.8,163.9z M904.7,191.6l-6.2-15.2
			l-6.2,15.2H904.7z"/>
	</g>
	<g>
		<path class="st1" d="M310.4,96.6v-0.2c0-24.8,19-44.3,44.8-44.3c17.4,0,28.6,7.3,36.2,17.7l-17.8,13.8c-4.9-6-10.5-10-18.6-10
			c-11.9,0-20.4,10.2-20.4,22.7v0.2c0,12.8,8.4,22.8,20.4,22.8c8.9,0,14.1-4.1,19.2-10.4l17.8,12.7c-8,11.1-18.9,19.3-37.6,19.3
			C330.1,140.7,310.4,122.1,310.4,96.6z"/>
		<path class="st1" d="M401.4,101.6V53.7h23.9v47.4c0,12.3,6.2,18.2,15.7,18.2c9.6,0,15.8-5.6,15.8-17.5v-48h23.9V101
			c0,27.4-15.7,39.6-40,39.6C416.6,140.6,401.4,128.3,401.4,101.6z"/>
		<path class="st1" d="M494.7,53.7h25l20.3,33l20.3-33h25V139h-23.5V90L540,123.4h-0.5l-21.7-33.3V139h-23.1V53.7z"/>
		<path class="st1" d="M599.5,101.6V53.7h23.9v47.4c0,12.3,6.2,18.2,15.7,18.2c9.6,0,15.8-5.6,15.8-17.5v-48h23.9V101
			c0,27.4-15.7,39.6-40,39.6C614.8,140.6,599.5,128.3,599.5,101.6z"/>
		<path class="st1" d="M692.9,53.7h23.6v64.6h41.3V139h-64.9V53.7z"/>
		<path class="st1" d="M764.7,101.6V53.7h23.9v47.4c0,12.3,6.2,18.2,15.7,18.2c9.6,0,15.8-5.6,15.8-17.5v-48H844V101
			c0,27.4-15.7,39.6-40,39.6C779.9,140.6,764.7,128.3,764.7,101.6z"/>
		<path class="st1" d="M851.6,126.3l13.2-15.7c8.5,6.7,17.8,10.2,27.7,10.2c6.5,0,9.9-2.2,9.9-5.8v-0.2c0-3.7-2.8-5.5-14.5-8.3
			c-18.2-4.1-32.2-9.3-32.2-26.7v-0.2c0-15.8,12.5-27.3,33-27.3c14.5,0,25.8,3.9,35.1,11.3l-11.8,16.7c-7.8-5.6-16.3-8.4-23.9-8.4
			c-5.7,0-8.5,2.3-8.5,5.5v0.2c0,3.9,2.9,5.6,14.9,8.3c19.5,4.3,31.7,10.6,31.7,26.6v0.2c0,17.4-13.8,27.8-34.5,27.8
			C876.5,140.5,862.2,135.7,851.6,126.3z"/>
	</g>
	<g>
		<path class="st1" d="M918.7,162.4v0.9h-2.4v6.3h-1v-6.3H913v-0.9H918.7z"/>
		<path class="st1" d="M919.6,162.4h1.4l2,6l2-6h1.4v7.1h-0.9v-4.2c0-0.1,0-0.4,0-0.7c0-0.3,0-0.7,0-1.1l-2,6h-1l-2.1-6v0.2
			c0,0.2,0,0.4,0,0.8s0,0.6,0,0.8v4.2h-0.9L919.6,162.4L919.6,162.4z"/>
	</g>
</g>
</svg>
