<?xml version="1.0" encoding="utf-8"?>
<!-- Generator: Adobe Illustrator 23.0.3, SVG Export Plug-In . SVG Version: 6.00 Build 0)  -->
<!DOCTYPE svg PUBLIC "-//W3C//DTD SVG 1.1//EN" "http://www.w3.org/Graphics/SVG/1.1/DTD/svg11.dtd" [
	<!ENTITY st0 "fill:#FFFFFF;">
]>
<svg version="1.1" id="Layer_1" xmlns="http://www.w3.org/2000/svg" xmlns:xlink="http://www.w3.org/1999/xlink" x="0px" y="0px"
	 viewBox="0 0 645.28 645.45" style="enable-background:new 0 0 645.28 645.45;" xml:space="preserve">
<g>
	<g>
		<path style="&st0;" d="M543.62,329.45c-3.21,19.07-19.75,33.62-39.74,33.62c-22.28,0-40.34-18.06-40.34-40.34
			c0-22.28,18.06-40.34,40.34-40.34c19.98,0,36.53,14.54,39.74,33.62h101.66C641.69,140.88,498.71,0,322.72,0
			C144.49,0,0,144.49,0,322.72c0,178.24,144.49,322.72,322.72,322.72c175.98,0,318.96-140.88,322.55-316H543.62z M322.72,564.77
			c-133.68,0-242.04-108.37-242.04-242.04S189.05,80.68,322.72,80.68c77.12,0,145.76,36.11,190.09,92.3l-86.74,86.74
			c-21.26-34.79-59.58-58.02-103.34-58.02c-66.84,0-121.02,54.18-121.02,121.02s54.18,121.02,121.02,121.02
			c43.76,0,82.09-23.23,103.34-58.02l86.74,86.74C468.49,528.66,399.84,564.77,322.72,564.77z"/>
	</g>
</g>
</svg>
