<?xml version="1.0" encoding="utf-8"?>
<!-- Generator: Adobe Illustrator 23.0.3, SVG Export Plug-In . SVG Version: 6.00 Build 0)  -->
<!DOCTYPE svg PUBLIC "-//W3C//DTD SVG 1.1//EN" "http://www.w3.org/Graphics/SVG/1.1/DTD/svg11.dtd" [
	<!ENTITY st0 "fill:#00598E;">
]>
<svg version="1.1" id="Layer_1" xmlns="http://www.w3.org/2000/svg" xmlns:xlink="http://www.w3.org/1999/xlink" x="0px" y="0px"
	 viewBox="0 0 263.93 264" style="enable-background:new 0 0 263.93 264;" xml:space="preserve">
<g>
	<g>
		<g>
			<path style="&st0;" d="M222.35,134.75c-1.31,7.8-8.08,13.75-16.25,13.75c-9.11,0-16.5-7.39-16.5-16.5c0-9.11,7.39-16.5,16.5-16.5
				c8.17,0,14.94,5.95,16.25,13.75h41.58C262.46,57.62,203.98,0,132,0C59.1,0,0,59.1,0,132c0,72.9,59.1,132,132,132
				c71.98,0,130.46-57.62,131.93-129.25H222.35z M132,231c-54.68,0-99-44.32-99-99s44.32-99,99-99c31.54,0,59.62,14.77,77.75,37.75
				l-35.48,35.48C165.57,92,149.9,82.5,132,82.5c-27.34,0-49.5,22.16-49.5,49.5s22.16,49.5,49.5,49.5c17.9,0,33.57-9.5,42.27-23.73
				l35.48,35.48C191.62,216.23,163.54,231,132,231z"/>
		</g>
	</g>
</g>
</svg>
