<?xml version="1.0" encoding="utf-8"?>
<!-- Generator: Adobe Illustrator 23.0.3, SVG Export Plug-In . SVG Version: 6.00 Build 0)  -->
<!DOCTYPE svg PUBLIC "-//W3C//DTD SVG 1.1//EN" "http://www.w3.org/Graphics/SVG/1.1/DTD/svg11.dtd" [
	<!ENTITY st0 "fill:#00598E;">
	<!ENTITY st1 "fill:#2DA4D5;">
	<!ENTITY st2 "fill:url(#SVGID_1_);">
	<!ENTITY st3 "fill:url(#SVGID_2_);">
	<!ENTITY st4 "fill:url(#SVGID_3_);">
	<!ENTITY st5 "fill:url(#SVGID_4_);">
	<!ENTITY st6 "fill:url(#SVGID_5_);">
	<!ENTITY st7 "fill:url(#SVGID_6_);">
	<!ENTITY st8 "fill:url(#SVGID_7_);">
]>
<svg version="1.1" id="Layer_1" xmlns="http://www.w3.org/2000/svg" xmlns:xlink="http://www.w3.org/1999/xlink" x="0px" y="0px"
	 viewBox="0 0 926.46 264" style="enable-background:new 0 0 926.46 264;" xml:space="preserve">
<g>
	<g>
		<g>
			<path style="&st0;" d="M222.35,134.75c-1.31,7.8-8.08,13.75-16.25,13.75c-9.11,0-16.5-7.39-16.5-16.5c0-9.11,7.39-16.5,16.5-16.5
				c8.17,0,14.94,5.95,16.25,13.75h41.58C262.46,57.62,203.98,0,132,0C59.1,0,0,59.1,0,132c0,72.9,59.1,132,132,132
				c71.98,0,130.46-57.62,131.93-129.25H222.35z M132,231c-54.68,0-99-44.32-99-99s44.32-99,99-99c31.54,0,59.62,14.77,77.75,37.75
				l-35.48,35.48C165.57,92,149.9,82.5,132,82.5c-27.34,0-49.5,22.16-49.5,49.5s22.16,49.5,49.5,49.5c17.9,0,33.57-9.5,42.27-23.73
				l35.48,35.48C191.62,216.23,163.54,231,132,231z"/>
		</g>
	</g>
	<g>
		<path style="&st1;" d="M324.07,164.25h11.14l12.34,19.86l12.34-19.86h11.14v46.96h-10.26v-30.66l-13.22,20.06h-0.26l-13.09-19.86
			v30.46h-10.13V164.25z"/>
		<path style="&st1;" d="M476.17,164.25h35.43v9.19h-25.15v9.53h22.14v9.19h-22.14v9.86h25.49v9.19h-35.76V164.25z"/>
		<path style="&st1;" d="M615,164.25h18.31c14.75,0,24.96,10.13,24.96,23.35v0.13c0,13.22-10.21,23.48-24.96,23.48H615V164.25z
			 M625.34,173.57v28.31h7.98c8.46,0,14.16-5.7,14.16-14.02v-0.14c0-8.32-5.7-14.15-14.16-14.15H625.34z"/>
		<path style="&st1;" d="M761.8,164.25h10.34v46.96H761.8V164.25z"/>
		<path style="&st1;" d="M893.85,163.91h9.53l20.13,47.3h-10.8l-4.3-10.53h-19.86l-4.29,10.53h-10.53L893.85,163.91z M904.73,191.55
			l-6.24-15.23l-6.24,15.23H904.73z"/>
	</g>
	<g>
		<linearGradient id="SVGID_1_" gradientUnits="userSpaceOnUse" x1="310.4438" y1="96.3609" x2="392.0704" y2="96.3609">
			<stop  offset="0" style="stop-color:#221F1F"/>
			<stop  offset="0.0896" style="stop-color:#221F1F"/>
			<stop  offset="1" style="stop-color:#221F1F"/>
		</linearGradient>
		<path style="&st2;" d="M310.44,96.6v-0.24c0-24.85,19-44.35,44.84-44.35c17.42,0,28.63,7.31,36.18,17.66l-17.79,13.77
			c-4.87-5.97-10.48-9.99-18.64-9.99c-11.94,0-20.35,10.23-20.35,22.66v0.24c0,12.79,8.41,22.78,20.35,22.78
			c8.89,0,14.13-4.14,19.25-10.36l17.79,12.67c-8.04,11.09-18.88,19.25-37.65,19.25C330.06,140.71,310.44,122.07,310.44,96.6z"/>
		<linearGradient id="SVGID_2_" gradientUnits="userSpaceOnUse" x1="401.3638" y1="97.151" x2="480.6784" y2="97.151">
			<stop  offset="0" style="stop-color:#221F1F"/>
			<stop  offset="0.0896" style="stop-color:#221F1F"/>
			<stop  offset="1" style="stop-color:#221F1F"/>
		</linearGradient>
		<path style="&st3;" d="M401.36,101.6V53.72h23.88v47.4c0,12.3,6.22,18.15,15.72,18.15c9.62,0,15.84-5.61,15.84-17.54V53.72h23.88
			v47.27c0,27.41-15.72,39.6-39.96,39.6C416.59,140.59,401.36,128.28,401.36,101.6z"/>
		<linearGradient id="SVGID_3_" gradientUnits="userSpaceOnUse" x1="494.7189" y1="96.3593" x2="585.367" y2="96.3593">
			<stop  offset="0" style="stop-color:#221F1F"/>
			<stop  offset="0.0896" style="stop-color:#221F1F"/>
			<stop  offset="1" style="stop-color:#221F1F"/>
		</linearGradient>
		<path style="&st4;" d="M494.72,53.72h24.98l20.35,33.02l20.34-33.02h24.98V139h-23.52V90.03l-21.81,33.38h-0.49l-21.68-33.26V139
			h-23.15V53.72z"/>
		<linearGradient id="SVGID_4_" gradientUnits="userSpaceOnUse" x1="599.5435" y1="97.151" x2="678.8581" y2="97.151">
			<stop  offset="0" style="stop-color:#221F1F"/>
			<stop  offset="0.0896" style="stop-color:#221F1F"/>
			<stop  offset="1" style="stop-color:#221F1F"/>
		</linearGradient>
		<path style="&st5;" d="M599.54,101.6V53.72h23.88v47.4c0,12.3,6.22,18.15,15.72,18.15c9.62,0,15.84-5.61,15.84-17.54V53.72h23.88
			v47.27c0,27.41-15.72,39.6-39.96,39.6C614.77,140.59,599.54,128.28,599.54,101.6z"/>
		<linearGradient id="SVGID_5_" gradientUnits="userSpaceOnUse" x1="692.8986" y1="96.3593" x2="757.8359" y2="96.3593">
			<stop  offset="0" style="stop-color:#221F1F"/>
			<stop  offset="0.0896" style="stop-color:#221F1F"/>
			<stop  offset="1" style="stop-color:#221F1F"/>
		</linearGradient>
		<path style="&st6;" d="M692.9,53.72h23.64v64.57h41.3V139H692.9V53.72z"/>
		<linearGradient id="SVGID_6_" gradientUnits="userSpaceOnUse" x1="764.6878" y1="97.151" x2="844.0024" y2="97.151">
			<stop  offset="0" style="stop-color:#221F1F"/>
			<stop  offset="0.0896" style="stop-color:#221F1F"/>
			<stop  offset="1" style="stop-color:#221F1F"/>
		</linearGradient>
		<path style="&st7;" d="M764.69,101.6V53.72h23.88v47.4c0,12.3,6.22,18.15,15.72,18.15c9.62,0,15.84-5.61,15.84-17.54V53.72H844
			v47.27c0,27.41-15.72,39.6-39.96,39.6C779.91,140.59,764.69,128.28,764.69,101.6z"/>
		<linearGradient id="SVGID_7_" gradientUnits="userSpaceOnUse" x1="851.5926" y1="96.3609" x2="926.0371" y2="96.3609">
			<stop  offset="0" style="stop-color:#221F1F"/>
			<stop  offset="0.0896" style="stop-color:#221F1F"/>
			<stop  offset="1" style="stop-color:#221F1F"/>
		</linearGradient>
		<path style="&st8;" d="M851.59,126.33l13.16-15.72c8.53,6.7,17.79,10.24,27.65,10.24c6.46,0,9.87-2.19,9.87-5.85v-0.24
			c0-3.66-2.8-5.48-14.49-8.29c-18.15-4.14-32.17-9.26-32.17-26.68v-0.24c0-15.84,12.55-27.29,33.02-27.29
			c14.5,0,25.83,3.9,35.09,11.33L911.9,80.28c-7.8-5.61-16.32-8.41-23.88-8.41c-5.72,0-8.53,2.32-8.53,5.48v0.24
			c0,3.9,2.93,5.61,14.87,8.29c19.49,4.26,31.68,10.6,31.68,26.56v0.24c0,17.42-13.77,27.78-34.48,27.78
			C876.45,140.47,862.19,135.71,851.59,126.33z"/>
	</g>
	<g>
		<path style="&st1;" d="M918.74,162.38v0.85h-2.4v6.29h-0.98v-6.29h-2.4v-0.85H918.74z"/>
		<path style="&st1;" d="M919.61,162.38H921l2.05,6.03l2.04-6.03h1.38v7.14h-0.92v-4.21c0-0.15,0-0.39,0.01-0.72
			c0.01-0.34,0.01-0.7,0.01-1.08l-2.04,6.02h-0.96l-2.06-6.02v0.22c0,0.17,0,0.44,0.01,0.8c0.01,0.36,0.01,0.62,0.01,0.79v4.21
			h-0.92V162.38z"/>
	</g>
</g>
</svg>
