<svg enable-background="new 0 0 265.9 266" viewBox="0 0 265.9 266" preserveAspectRatio="xMinYMid" xmlns="http://www.w3.org/2000/svg"><path d="m223.3 135.7c-1.3 7.8-8.1 13.8-16.2 13.8-9.1 0-16.5-7.4-16.5-16.5s7.4-16.5 16.5-16.5c8.2 0 14.9 5.9 16.2 13.8h41.6c-1.4-71.7-59.9-129.3-131.9-129.3-72.9 0-132 59.1-132 132s59.1 132 132 132c72 0 130.5-57.6 131.9-129.2h-41.6zm-90.3 96.3c-54.7 0-99-44.3-99-99s44.3-99 99-99c31.5 0 59.6 14.8 77.8 37.8l-35.5 35.5c-8.7-14.3-24.4-23.8-42.3-23.8-27.3 0-49.5 22.2-49.5 49.5s22.2 49.5 49.5 49.5c17.9 0 33.6-9.5 42.3-23.7l35.5 35.5c-18.2 22.9-46.3 37.7-77.8 37.7z" fill="#00598e"/></svg>