<svg enable-background="new 0 0 929.7 268" viewBox="0 0 929.7 268" preserveAspectRatio="xMinYMid" xmlns="http://www.w3.org/2000/svg" xmlns:xlink="http://www.w3.org/1999/xlink"><linearGradient id="a"><stop offset="0" stop-color="#221f1f"/><stop offset=".09" stop-color="#221f1f"/><stop offset="1" stop-color="#221f1f"/></linearGradient><linearGradient id="b" gradientTransform="matrix(1 0 0 -1 0 270.0195)" gradientUnits="userSpaceOnUse" x1="312.0695" x2="393.6995" xlink:href="#a" y1="171.6598" y2="171.6598"/><linearGradient id="c" gradientTransform="matrix(1 0 0 -1 0 270.0195)" gradientUnits="userSpaceOnUse" x1="402.9895" x2="482.3095" xlink:href="#a" y1="170.8548" y2="170.8548"/><linearGradient id="d" gradientTransform="matrix(1 0 0 -1 0 270.0195)" gradientUnits="userSpaceOnUse" x1="496.3495" x2="586.9995" xlink:href="#a" y1="171.6498" y2="171.6498"/><linearGradient id="e" gradientTransform="matrix(1 0 0 -1 0 270.0195)" gradientUnits="userSpaceOnUse" x1="601.1694" x2="680.4894" xlink:href="#a" y1="170.8548" y2="170.8548"/><linearGradient id="f" gradientTransform="matrix(1 0 0 -1 0 270.0195)" gradientUnits="userSpaceOnUse" x1="694.5295" x2="759.4695" xlink:href="#a" y1="171.6498" y2="171.6498"/><linearGradient id="g" gradientTransform="matrix(1 0 0 -1 0 270.0195)" gradientUnits="userSpaceOnUse" x1="766.3195" x2="845.6295" xlink:href="#a" y1="170.8548" y2="170.8548"/><linearGradient id="h" gradientTransform="matrix(1 0 0 -1 0 270.0195)" gradientUnits="userSpaceOnUse" x1="853.2195" x2="927.6695" xlink:href="#a" y1="171.6497" y2="171.6497"/><path d="m224 136.8c-1.3 7.8-8.1 13.8-16.2 13.8-9.1 0-16.5-7.4-16.5-16.5s7.4-16.5 16.5-16.5c8.2 0 14.9 5.9 16.2 13.8h41.6c-1.5-71.8-60-129.4-132-129.4-72.9 0-132 59.1-132 132s59.1 132 132 132c72 0 130.5-57.6 131.9-129.2zm-90.4 96.2c-54.7 0-99-44.3-99-99s44.3-99 99-99c31.5 0 59.6 14.8 77.8 37.8l-35.5 35.5c-8.7-14.2-24.4-23.7-42.3-23.7-27.3 0-49.5 22.2-49.5 49.5s22.2 49.5 49.5 49.5c17.9 0 33.6-9.5 42.3-23.7l35.5 35.5c-18.2 22.8-46.2 37.6-77.8 37.6z" fill="#00598e"/><path d="m325.7 166.3h11.1l12.3 19.9 12.3-19.9h11.1v47h-10.3v-30.7l-13.2 20.1h-.3l-13.1-19.9v30.5h-10.1v-47zm152.1 0h35.4v9.2h-25.1v9.5h22.1v9.2h-22.1v9.9h25.5v9.2h-35.8zm138.8 0h18.3c14.8 0 25 10.1 25 23.4v.1c0 13.2-10.2 23.5-25 23.5h-18.3zm10.4 9.3v28.3h8c8.5 0 14.2-5.7 14.2-14v-.1c0-8.3-5.7-14.1-14.2-14.1h-8zm136.4-9.3h10.3v47h-10.3zm132.1-.4h9.5l20.1 47.3h-10.8l-4.3-10.5h-19.9l-4.3 10.5h-10.5zm10.9 27.7-6.2-15.2-6.2 15.2z" fill="#2da4d5"/><path d="m312.1 98.6v-.2c0-24.8 19-44.3 44.8-44.3 17.4 0 28.6 7.3 36.2 17.7l-17.8 13.8c-4.9-6-10.5-10-18.6-10-11.9 0-20.4 10.2-20.4 22.7v.2c0 12.8 8.4 22.8 20.4 22.8 8.9 0 14.1-4.1 19.2-10.4l17.8 12.7c-8 11.1-18.9 19.3-37.6 19.3-24.4-.2-44-18.8-44-44.3z" fill="url(#b)"/><path d="m403 103.6v-47.9h23.9v47.4c0 12.3 6.2 18.2 15.7 18.2 9.6 0 15.8-5.6 15.8-17.5v-48h23.9v47.2c0 27.4-15.7 39.6-40 39.6-24.1 0-39.3-12.3-39.3-39z" fill="url(#c)"/><path d="m496.3 55.7h25l20.3 33 20.3-33h25v85.3h-23.5v-49l-21.8 33.4h-.5l-21.7-33.3v48.9h-23.1z" fill="url(#d)"/><path d="m601.2 103.6v-47.9h23.8v47.4c0 12.3 6.2 18.2 15.7 18.2 9.6 0 15.8-5.6 15.8-17.5v-48h23.9v47.2c0 27.4-15.7 39.6-40 39.6-24 0-39.2-12.3-39.2-39z" fill="url(#e)"/><path d="m694.5 55.7h23.6v64.6h41.3v20.7h-64.9z" fill="url(#f)"/><path d="m766.3 103.6v-47.9h23.9v47.4c0 12.3 6.2 18.2 15.7 18.2 9.6 0 15.8-5.6 15.8-17.5v-48h23.9v47.2c0 27.4-15.7 39.6-40 39.6-24.1 0-39.3-12.3-39.3-39z" fill="url(#g)"/><path d="m853.2 128.3 13.2-15.7c8.5 6.7 17.8 10.2 27.7 10.2 6.5 0 9.9-2.2 9.9-5.8v-.2c0-3.7-2.8-5.5-14.5-8.3-18.2-4.1-32.2-9.3-32.2-26.7v-.2c0-15.8 12.5-27.3 33-27.3 14.5 0 25.8 3.9 35.1 11.3l-11.8 16.7c-7.8-5.6-16.3-8.4-23.9-8.4-5.7 0-8.5 2.3-8.5 5.5v.2c0 3.9 2.9 5.6 14.9 8.3 19.5 4.3 31.7 10.6 31.7 26.6v.2c0 17.4-13.8 27.8-34.5 27.8-15.2 0-29.5-4.8-40.1-14.2z" fill="url(#h)"/><path d="m920.4 164.4v.9h-2.4v6.3h-1v-6.3h-2.4v-.9zm.8 0h1.4l2 6 2-6h1.4v7.1h-.9v-4.2c0-.1 0-.4 0-.7s0-.7 0-1.1l-2 6h-1l-2.1-6v.2.8s0 .6 0 .8v4.2h-.9z" fill="#2da4d5"/></svg>